<svg xmlns="http://www.w3.org/2000/svg" width="24" height="24" fill="none" viewBox="0 0 24 24" id="cpp"><path fill="#141520" d="M5.5 5C4.30653 5 3.16193 5.47411 2.31802 6.31802 1.47411 7.16193 1 8.30653 1 9.5V14.5C1 15.6935 1.47411 16.8381 2.31802 17.682 3.16193 18.5259 4.30653 19 5.5 19H6C7.06087 19 8.07828 18.5786 8.82843 17.8284 9.57857 17.0783 10 16.0609 10 15 10 14.4477 9.55228 14 9 14 8.44772 14 8 14.4477 8 15 8 15.5304 7.78929 16.0391 7.41421 16.4142 7.03914 16.7893 6.53043 17 6 17H5.5C4.83696 17 4.20107 16.7366 3.73223 16.2678 3.26339 15.7989 3 15.163 3 14.5V9.5C3 8.83696 3.26339 8.20107 3.73223 7.73223 4.20107 7.26339 4.83696 7 5.5 7H6C6.53043 7 7.03914 7.21071 7.41421 7.58579 7.78929 7.96086 8 8.46957 8 9 8 9.55228 8.44772 10 9 10 9.55228 10 10 9.55228 10 9 10 7.93913 9.57857 6.92172 8.82843 6.17157 8.07828 5.42143 7.06087 5 6 5H5.5zM20 9C20.5523 9 21 9.44772 21 10V11H22C22.5523 11 23 11.4477 23 12 23 12.5523 22.5523 13 22 13H21V14C21 14.5523 20.5523 15 20 15 19.4477 15 19 14.5523 19 14V13H18C17.4477 13 17 12.5523 17 12 17 11.4477 17.4477 11 18 11H19V10C19 9.44772 19.4477 9 20 9zM11 11C10.4477 11 10 11.4477 10 12 10 12.5523 10.4477 13 11 13H12V14C12 14.5523 12.4477 15 13 15 13.5523 15 14 14.5523 14 14V13H15C15.5523 13 16 12.5523 16 12 16 11.4477 15.5523 11 15 11H14V10C14 9.44772 13.5523 9 13 9 12.4477 9 12 9.44772 12 10V11H11z"></path></svg>